<?xml version="1.0" standalone="no"?>
<!DOCTYPE svg PUBLIC "-//W3C//DTD SVG 20010904//EN"
 "http://www.w3.org/TR/2001/REC-SVG-20010904/DTD/svg10.dtd">
<svg version="1.0" xmlns="http://www.w3.org/2000/svg"
 width="100.000000pt" height="110.000000pt" viewBox="0 0 100.000000 110.000000"
 preserveAspectRatio="xMidYMid meet">

<g transform="translate(0.000000,110.000000) scale(0.100000,-0.100000)"
fill="#000000" stroke="none">
<path d="M920 447 l5 -192 3 184 c1 102 -1 188 -5 192 -5 5 -6 -78 -3 -184z"/>
<path d="M768 333 c4 -156 8 -171 10 -40 1 70 -1 127 -5 127 -5 0 -7 -39 -5
-87z"/>
<path d="M522 220 c-1 -131 -6 -190 -14 -200 -9 -10 -7 -10 5 1 16 14 17 34
14 200 l-2 184 -3 -185z"/>
<path d="M672 243 c-1 -68 1 -123 6 -123 4 0 6 37 4 82 -5 150 -8 165 -10 41z"/>
</g>
</svg>
